<svg width="30" height="30" viewBox="0 0 30 30" fill="none" xmlns="http://www.w3.org/2000/svg">
<path d="M10 3.75C9.10679 3.81844 8.47699 3.97669 7.93651 4.3426C6.9842 4.98735 6.52753 6.12904 5.61418 8.41242L3.03643 14.9089C2.76903 15.5774 2.63533 15.9116 2.56766 16.263C2.5 16.6144 2.5 16.9744 2.5 17.6944V18.75C2.5 22.2855 2.5 24.0532 3.59835 25.1516C4.6967 26.25 6.46446 26.25 10 26.25H20C23.5355 26.25 25.3032 26.25 26.4016 25.1516C27.5 24.0532 27.5 22.2855 27.5 18.75V17.6944C27.5 16.9744 27.5 16.6144 27.4324 16.263C27.3646 15.9116 27.231 15.5774 26.9636 14.9089L24.3859 8.41242C23.4725 6.12904 23.0158 4.98735 22.0635 4.3426C21.523 3.97669 20.8933 3.81844 20 3.75" stroke="black" stroke-width="3" stroke-linecap="round" stroke-linejoin="round"/>
<path d="M3.125 16.25H6.98224C7.70329 16.25 8.06381 16.25 8.39978 16.3458C8.58434 16.3984 8.76222 16.472 8.92992 16.5654C9.2352 16.7353 9.49014 16.9901 10 17.5C10.5099 18.0099 10.7648 18.2647 11.0701 18.4346C11.2378 18.528 11.4157 18.6016 11.6002 18.6542C11.9362 18.75 12.2967 18.75 13.0177 18.75H16.9823C17.7033 18.75 18.0639 18.75 18.3997 18.6542C18.5844 18.6016 18.7622 18.528 18.9299 18.4346C19.2352 18.2647 19.4901 18.0099 20 17.5C20.5099 16.9901 20.7648 16.7353 21.0701 16.5654C21.2378 16.472 21.4156 16.3984 21.6002 16.3458C21.9361 16.25 22.2967 16.25 23.0177 16.25H26.875" stroke="black" stroke-width="3" stroke-linecap="round" stroke-linejoin="round"/>
<path d="M18.75 8.75003C18.75 8.75003 15.9881 12.5 15 12.5C14.0117 12.5 11.25 8.75 11.25 8.75" stroke="black" stroke-width="3" stroke-linecap="round" stroke-linejoin="round"/>
<path d="M15 3.75V11.875" stroke="black" stroke-width="3" stroke-linecap="round" stroke-linejoin="round"/>
</svg>
