<svg width="26" height="26" viewBox="0 0 26 26" fill="none" xmlns="http://www.w3.org/2000/svg">
<path d="M14.8629 22.0709C14.625 21.4966 14.625 20.7686 14.625 19.3125C14.625 17.8564 14.625 17.1284 14.8629 16.5541C15.18 15.7884 15.7884 15.18 16.5541 14.8629C17.1284 14.625 17.8564 14.625 19.3125 14.625C20.7686 14.625 21.4966 14.625 22.0709 14.8629C22.8366 15.18 23.445 15.7884 23.7621 16.5541C24 17.1284 24 17.8564 24 19.3125C24 20.7686 24 21.4966 23.7621 22.0709C23.445 22.8366 22.8366 23.445 22.0709 23.7621C21.4966 24 20.7686 24 19.3125 24C17.8564 24 17.1284 24 16.5541 23.7621C15.7884 23.445 15.18 22.8366 14.8629 22.0709Z" stroke="black" stroke-width="3" stroke-linecap="square" stroke-linejoin="round"/>
<path d="M14.8629 8.94589C14.625 8.3716 14.625 7.64356 14.625 6.1875C14.625 4.73144 14.625 4.0034 14.8629 3.42911C15.18 2.6634 15.7884 2.05505 16.5541 1.73787C17.1284 1.5 17.8564 1.5 19.3125 1.5C20.7686 1.5 21.4966 1.5 22.0709 1.73787C22.8366 2.05505 23.445 2.6634 23.7621 3.42911C24 4.0034 24 4.73144 24 6.1875C24 7.64356 24 8.3716 23.7621 8.94589C23.445 9.7116 22.8366 10.32 22.0709 10.6371C21.4966 10.875 20.7686 10.875 19.3125 10.875C17.8564 10.875 17.1284 10.875 16.5541 10.6371C15.7884 10.32 15.18 9.7116 14.8629 8.94589Z" stroke="black" stroke-width="3" stroke-linecap="square" stroke-linejoin="round"/>
<path d="M1.73787 22.0709C1.5 21.4966 1.5 20.7686 1.5 19.3125C1.5 17.8564 1.5 17.1284 1.73787 16.5541C2.05505 15.7884 2.6634 15.18 3.42911 14.8629C4.0034 14.625 4.73144 14.625 6.1875 14.625C7.64356 14.625 8.3716 14.625 8.94589 14.8629C9.7116 15.18 10.32 15.7884 10.6371 16.5541C10.875 17.1284 10.875 17.8564 10.875 19.3125C10.875 20.7686 10.875 21.4966 10.6371 22.0709C10.32 22.8366 9.7116 23.445 8.94589 23.7621C8.3716 24 7.64356 24 6.1875 24C4.73144 24 4.0034 24 3.42911 23.7621C2.6634 23.445 2.05505 22.8366 1.73787 22.0709Z" stroke="black" stroke-width="3" stroke-linecap="square" stroke-linejoin="round"/>
<path d="M1.73787 8.94589C1.5 8.3716 1.5 7.64356 1.5 6.1875C1.5 4.73144 1.5 4.0034 1.73787 3.42911C2.05505 2.6634 2.6634 2.05505 3.42911 1.73787C4.0034 1.5 4.73144 1.5 6.1875 1.5C7.64356 1.5 8.3716 1.5 8.94589 1.73787C9.7116 2.05505 10.32 2.6634 10.6371 3.42911C10.875 4.0034 10.875 4.73144 10.875 6.1875C10.875 7.64356 10.875 8.3716 10.6371 8.94589C10.32 9.7116 9.7116 10.32 8.94589 10.6371C8.3716 10.875 7.64356 10.875 6.1875 10.875C4.73144 10.875 4.0034 10.875 3.42911 10.6371C2.6634 10.32 2.05505 9.7116 1.73787 8.94589Z" stroke="black" stroke-width="3" stroke-linecap="square" stroke-linejoin="round"/>
</svg>
