<svg width="30" height="30" viewBox="0 0 30 30" fill="none" xmlns="http://www.w3.org/2000/svg">
<path d="M8.75 7.5C8.75 9.57106 10.4289 11.25 12.5 11.25C14.5711 11.25 16.25 9.57106 16.25 7.5" stroke="black" stroke-width="3" stroke-linecap="round" stroke-linejoin="round"/>
<path d="M13.8896 3.75H11.1103C7.7715 3.75 6.1021 3.75 5.0246 4.7758C3.94711 5.8016 3.85451 7.47906 3.66931 10.834L3.2553 18.334C3.05031 22.0474 2.94783 23.9041 4.05038 25.077C5.15294 26.25 7.00073 26.25 10.6963 26.25H14.3038C17.9993 26.25 19.8471 26.25 20.9496 25.077C22.0521 23.9041 21.9496 22.0474 21.7446 18.334L21.3306 10.834C21.1454 7.47905 21.0529 5.80159 19.9754 4.7758C18.8979 3.75 17.2285 3.75 13.8896 3.75Z" stroke="black" stroke-width="3" stroke-linecap="round" stroke-linejoin="round"/>
<path d="M16.1103 3.75H18.8897C22.2284 3.75 23.8978 3.75 24.9753 4.7758C26.0528 5.80159 26.1454 7.47905 26.3307 10.834L26.7447 18.334C26.9497 22.0474 27.0522 23.9041 25.9497 25.077C24.847 26.25 22.9993 26.25 19.3037 26.25H15.6963" stroke="black" stroke-width="3" stroke-linecap="round" stroke-linejoin="round"/>
</svg>
