<svg width="30" height="30" viewBox="0 0 30 30" fill="none" xmlns="http://www.w3.org/2000/svg">
<path d="M20.5 24.5V17.625C20.5 17.0441 20.5 16.7538 20.452 16.5123C20.2547 15.5205 19.4795 14.7452 18.4877 14.548C18.2462 14.5 17.375 14.5 17.375 14.5C16.75 20.7491 11.75 22 11.75 22C11.75 22 6.75 20.75 6.125 14.5C6.125 14.5 5.25377 14.5 5.01227 14.548C4.02055 14.7452 3.2453 15.5205 3.04804 16.5123C3 16.7538 3 17.0441 3 17.625V24.5" stroke="black" stroke-width="3" stroke-linecap="round" stroke-linejoin="round"/>
<path d="M11.75 15.1245L14.25 13.8745V16.3745L11.75 15.1245ZM11.75 15.1245L9.25 13.8748V16.3748L11.75 15.1245Z" stroke="black" stroke-width="3" stroke-linecap="round" stroke-linejoin="round"/>
<path d="M15.5 6.92188V5.82812C15.5 3.71391 13.8211 2 11.75 2C9.67894 2 8 3.71391 8 5.82812V6.92188C8 9.03609 9.67894 10.75 11.75 10.75C13.8211 10.75 15.5 9.03609 15.5 6.92188Z" stroke="black" stroke-width="3" stroke-linecap="round" stroke-linejoin="round"/>
<path d="M26.75 24.5V17.625C26.75 17.0441 26.75 16.7538 26.702 16.5123C26.5047 15.5205 25.7295 14.7452 24.7377 14.548C24.4962 14.5 24.2059 14.5 23.625 14.5" stroke="black" stroke-width="3" stroke-linecap="round" stroke-linejoin="round"/>
<path d="M18 2.21782C18.391 2.07676 18.8117 2 19.25 2C21.3211 2 23 3.71391 23 5.82812V6.92188C23 9.03609 21.3211 10.75 19.25 10.75C18.8117 10.75 18.391 10.6732 18 10.5322" stroke="black" stroke-width="3" stroke-linecap="round" stroke-linejoin="round"/>
</svg>
