<svg width="35" height="35" viewBox="0 0 35 35" fill="none" xmlns="http://www.w3.org/2000/svg">
<path d="M22.6042 11.7257C22.5441 10.0329 22.344 8.97532 21.6774 8.14728C20.725 6.96406 19.096 6.5926 15.8383 5.84968L14.378 5.51667C9.42802 4.38786 6.95304 3.82346 5.29945 5.12337C3.64587 6.42328 3.64587 8.93331 3.64587 13.9534V21.0467C3.64587 26.0667 3.64587 28.5768 5.29945 29.8766C6.95304 31.1765 9.42802 30.6122 14.378 29.4833L15.8383 29.1503C19.096 28.4075 20.725 28.0359 21.6774 26.8527C22.344 26.0247 22.5441 24.9671 22.6042 23.2743" stroke="black" stroke-width="3" stroke-linecap="round" stroke-linejoin="round"/>
<path d="M26.9791 13.1426C26.9791 13.1426 31.3541 16.3647 31.3541 17.5175C31.3541 18.6705 26.9791 21.8925 26.9791 21.8925M30.6249 17.5175H12.3958" stroke="black" stroke-width="3" stroke-linecap="round" stroke-linejoin="round"/>
</svg>
