<svg width="32" height="32" viewBox="0 0 32 32" fill="none" xmlns="http://www.w3.org/2000/svg">
<path d="M18.3754 15.25C22.8627 15.25 26.5004 14.1307 26.5004 12.75C26.5004 11.3693 22.8627 10.25 18.3754 10.25C13.8881 10.25 10.2504 11.3693 10.2504 12.75C10.2504 14.1307 13.8881 15.25 18.3754 15.25Z" stroke="black" stroke-width="3"/>
<path d="M26.5004 18.375C26.5004 19.7557 22.8627 20.875 18.3754 20.875C13.888 20.875 10.2504 19.7557 10.2504 18.375" stroke="black" stroke-width="3"/>
<path d="M26.5004 12.75V23.75C26.5004 25.2687 22.8627 26.5 18.3754 26.5C13.888 26.5 10.2504 25.2687 10.2504 23.75V12.75" stroke="black" stroke-width="3"/>
<path d="M9.62537 6.5C14.1127 6.5 17.7504 5.38071 17.7504 4C17.7504 2.61929 14.1127 1.5 9.62537 1.5C5.13805 1.5 1.50037 2.61929 1.50037 4C1.50037 5.38071 5.13805 6.5 9.62537 6.5Z" stroke="black" stroke-width="3"/>
<path d="M6.50037 12.75C4.1356 12.4623 1.96275 11.7181 1.50037 10.25M6.50037 19C4.1356 18.7123 1.96275 17.9681 1.50037 16.5" stroke="black" stroke-width="3" stroke-linecap="round"/>
<path d="M6.50037 25.25C4.1356 24.9623 1.96275 24.2181 1.50037 22.75V4" stroke="black" stroke-width="3" stroke-linecap="round"/>
<path d="M17.7504 6.5V4" stroke="black" stroke-width="3" stroke-linecap="round"/>
</svg>
