<svg width="50" height="50" viewBox="0 0 50 50" fill="none" xmlns="http://www.w3.org/2000/svg">
<path d="M25 4.1665C36.5077 4.1665 45.8333 13.4952 45.8333 24.9998C45.8333 36.5044 36.5077 45.8332 25 45.8332" stroke="black" stroke-width="3" stroke-linecap="round" stroke-linejoin="round"/>
<path d="M18.75 44.7918C16.2742 43.9487 13.9485 42.7308 11.9229 41.1381M11.9229 8.86235C13.9485 7.29306 16.2742 6.05168 18.75 5.2085M4.16663 21.3462C4.61677 18.9338 5.54202 16.5915 6.86742 14.4601M4.16663 28.6541C4.61677 31.0666 5.54202 33.4087 6.86742 35.5402" stroke="black" stroke-width="3" stroke-linecap="round" stroke-linejoin="round"/>
<path d="M31.25 18.75C31.25 15.2982 28.4519 12.5 25 12.5C21.5481 12.5 18.75 15.2982 18.75 18.75C18.75 22.2019 21.5481 25 25 25C28.4519 25 31.25 22.2019 31.25 18.75Z" stroke="black" stroke-width="3" stroke-linecap="round" stroke-linejoin="round"/>
<path d="M35.4167 35.4167C35.4167 29.6638 30.753 25 25 25C19.2471 25 14.5834 29.6638 14.5834 35.4167" stroke="black" stroke-width="3" stroke-linecap="round" stroke-linejoin="round"/>
</svg>
